<mxfile host="app.diagrams.net" modified="2023-10-15T18:16:08.339Z" agent="Mozilla/5.0 (Windows NT 10.0; Win64; x64) AppleWebKit/537.36 (KHTML, like Gecko) Chrome/118.0.0.0 Safari/537.36" etag="qFOZfrl7UgxSsRzK2SdC" version="22.0.4" type="github">
  <diagram name="Page-1" id="2YBvvXClWsGukQMizWep">
    <mxGraphModel dx="989" dy="517" grid="1" gridSize="10" guides="1" tooltips="1" connect="1" arrows="1" fold="1" page="1" pageScale="1" pageWidth="850" pageHeight="1100" math="0" shadow="0">
      <root>
        <mxCell id="0" />
        <mxCell id="1" parent="0" />
        <mxCell id="aM9ryv3xv72pqoxQDRHE-1" value="Homeowner" style="shape=umlLifeline;perimeter=lifelinePerimeter;whiteSpace=wrap;html=1;container=0;dropTarget=0;collapsible=0;recursiveResize=0;outlineConnect=0;portConstraint=eastwest;newEdgeStyle={&quot;edgeStyle&quot;:&quot;elbowEdgeStyle&quot;,&quot;elbow&quot;:&quot;vertical&quot;,&quot;curved&quot;:0,&quot;rounded&quot;:0};" parent="1" vertex="1">
          <mxGeometry x="40" y="40" width="100" height="670" as="geometry" />
        </mxCell>
        <mxCell id="aM9ryv3xv72pqoxQDRHE-5" value="UI" style="shape=umlLifeline;perimeter=lifelinePerimeter;whiteSpace=wrap;html=1;container=0;dropTarget=0;collapsible=0;recursiveResize=0;outlineConnect=0;portConstraint=eastwest;newEdgeStyle={&quot;edgeStyle&quot;:&quot;elbowEdgeStyle&quot;,&quot;elbow&quot;:&quot;vertical&quot;,&quot;curved&quot;:0,&quot;rounded&quot;:0};" parent="1" vertex="1">
          <mxGeometry x="220" y="40" width="100" height="670" as="geometry" />
        </mxCell>
        <mxCell id="aM9ryv3xv72pqoxQDRHE-7" value="OpenDashboard()" style="html=1;verticalAlign=bottom;endArrow=block;edgeStyle=elbowEdgeStyle;elbow=vertical;curved=0;rounded=0;" parent="1" source="aM9ryv3xv72pqoxQDRHE-1" edge="1">
          <mxGeometry relative="1" as="geometry">
            <mxPoint x="95" y="120" as="sourcePoint" />
            <Array as="points">
              <mxPoint x="180" y="120" />
            </Array>
            <mxPoint x="270" y="120" as="targetPoint" />
          </mxGeometry>
        </mxCell>
        <mxCell id="aM9ryv3xv72pqoxQDRHE-9" value="Loaded Dashboard" style="html=1;verticalAlign=bottom;endArrow=block;edgeStyle=elbowEdgeStyle;elbow=vertical;curved=0;rounded=0;dashed=1;" parent="1" edge="1">
          <mxGeometry relative="1" as="geometry">
            <mxPoint x="269.5" y="255" as="sourcePoint" />
            <Array as="points">
              <mxPoint x="190" y="255" />
            </Array>
            <mxPoint x="89.5" y="255" as="targetPoint" />
          </mxGeometry>
        </mxCell>
        <mxCell id="8fsABqZ9mkiLqo2HBE2c-2" value="Registration Service" style="shape=umlLifeline;perimeter=lifelinePerimeter;whiteSpace=wrap;html=1;container=0;dropTarget=0;collapsible=0;recursiveResize=0;outlineConnect=0;portConstraint=eastwest;newEdgeStyle={&quot;edgeStyle&quot;:&quot;elbowEdgeStyle&quot;,&quot;elbow&quot;:&quot;vertical&quot;,&quot;curved&quot;:0,&quot;rounded&quot;:0};" parent="1" vertex="1">
          <mxGeometry x="400" y="40" width="100" height="670" as="geometry" />
        </mxCell>
        <mxCell id="8fsABqZ9mkiLqo2HBE2c-4" value="Analytics Service" style="shape=umlLifeline;perimeter=lifelinePerimeter;whiteSpace=wrap;html=1;container=0;dropTarget=0;collapsible=0;recursiveResize=0;outlineConnect=0;portConstraint=eastwest;newEdgeStyle={&quot;edgeStyle&quot;:&quot;elbowEdgeStyle&quot;,&quot;elbow&quot;:&quot;vertical&quot;,&quot;curved&quot;:0,&quot;rounded&quot;:0};" parent="1" vertex="1">
          <mxGeometry x="580" y="40" width="100" height="670" as="geometry" />
        </mxCell>
        <mxCell id="8fsABqZ9mkiLqo2HBE2c-6" value="GetAllDevices(user)" style="html=1;verticalAlign=bottom;endArrow=block;edgeStyle=elbowEdgeStyle;elbow=vertical;curved=0;rounded=0;" parent="1" edge="1">
          <mxGeometry relative="1" as="geometry">
            <mxPoint x="270" y="140" as="sourcePoint" />
            <Array as="points">
              <mxPoint x="361" y="140" />
            </Array>
            <mxPoint x="450" y="140" as="targetPoint" />
          </mxGeometry>
        </mxCell>
        <mxCell id="8fsABqZ9mkiLqo2HBE2c-8" value="Loaded Devices" style="html=1;verticalAlign=bottom;endArrow=block;edgeStyle=elbowEdgeStyle;elbow=vertical;curved=0;rounded=0;dashed=1;" parent="1" edge="1">
          <mxGeometry relative="1" as="geometry">
            <mxPoint x="450" y="160" as="sourcePoint" />
            <Array as="points">
              <mxPoint x="370.5" y="160" />
            </Array>
            <mxPoint x="270" y="160" as="targetPoint" />
          </mxGeometry>
        </mxCell>
        <mxCell id="8fsABqZ9mkiLqo2HBE2c-9" value="LoadAnalytics(devices)" style="html=1;verticalAlign=bottom;endArrow=block;edgeStyle=elbowEdgeStyle;elbow=vertical;curved=0;rounded=0;" parent="1" edge="1">
          <mxGeometry relative="1" as="geometry">
            <mxPoint x="272" y="221" as="sourcePoint" />
            <Array as="points">
              <mxPoint x="363" y="221" />
            </Array>
            <mxPoint x="629.5" y="221" as="targetPoint" />
          </mxGeometry>
        </mxCell>
        <mxCell id="8fsABqZ9mkiLqo2HBE2c-10" value="Loaded Analytics" style="html=1;verticalAlign=bottom;endArrow=block;edgeStyle=elbowEdgeStyle;elbow=vertical;curved=0;rounded=0;dashed=1;" parent="1" edge="1">
          <mxGeometry relative="1" as="geometry">
            <mxPoint x="629.5" y="241" as="sourcePoint" />
            <Array as="points">
              <mxPoint x="371.5" y="241" />
            </Array>
            <mxPoint x="271" y="241" as="targetPoint" />
          </mxGeometry>
        </mxCell>
        <mxCell id="8fsABqZ9mkiLqo2HBE2c-11" value="alternative" style="shape=umlFrame;whiteSpace=wrap;html=1;pointerEvents=0;width=70;height=30;" parent="1" vertex="1">
          <mxGeometry x="70" y="270" width="580" height="130" as="geometry" />
        </mxCell>
        <mxCell id="8fsABqZ9mkiLqo2HBE2c-12" value="[homeowner opens device graph with warning message]" style="text;html=1;strokeColor=none;fillColor=none;align=center;verticalAlign=middle;whiteSpace=wrap;rounded=0;" parent="1" vertex="1">
          <mxGeometry x="143" y="270" width="310" height="30" as="geometry" />
        </mxCell>
        <mxCell id="8fsABqZ9mkiLqo2HBE2c-14" value="OpenDeviceGraph()" style="html=1;verticalAlign=bottom;endArrow=block;edgeStyle=elbowEdgeStyle;elbow=vertical;curved=0;rounded=0;" parent="1" edge="1">
          <mxGeometry relative="1" as="geometry">
            <mxPoint x="90" y="319.5" as="sourcePoint" />
            <Array as="points">
              <mxPoint x="180" y="319.5" />
            </Array>
            <mxPoint x="270" y="319.5" as="targetPoint" />
          </mxGeometry>
        </mxCell>
        <mxCell id="8fsABqZ9mkiLqo2HBE2c-17" value="LoadAnalytics(device)" style="html=1;verticalAlign=bottom;endArrow=block;edgeStyle=elbowEdgeStyle;elbow=vertical;curved=0;rounded=0;" parent="1" edge="1">
          <mxGeometry relative="1" as="geometry">
            <mxPoint x="272" y="341" as="sourcePoint" />
            <Array as="points">
              <mxPoint x="363" y="341" />
            </Array>
            <mxPoint x="630" y="341" as="targetPoint" />
          </mxGeometry>
        </mxCell>
        <mxCell id="8fsABqZ9mkiLqo2HBE2c-18" value="Loaded Analytics" style="html=1;verticalAlign=bottom;endArrow=block;edgeStyle=elbowEdgeStyle;elbow=vertical;curved=0;rounded=0;dashed=1;" parent="1" edge="1">
          <mxGeometry relative="1" as="geometry">
            <mxPoint x="630" y="361" as="sourcePoint" />
            <Array as="points">
              <mxPoint x="371.5" y="361" />
            </Array>
            <mxPoint x="271" y="361" as="targetPoint" />
          </mxGeometry>
        </mxCell>
        <mxCell id="8fsABqZ9mkiLqo2HBE2c-19" value="Loaded Device Graph" style="html=1;verticalAlign=bottom;endArrow=block;edgeStyle=elbowEdgeStyle;elbow=vertical;curved=0;rounded=0;" parent="1" edge="1">
          <mxGeometry relative="1" as="geometry">
            <mxPoint x="270" y="380" as="sourcePoint" />
            <Array as="points">
              <mxPoint x="190.5" y="380" />
            </Array>
            <mxPoint x="90" y="380" as="targetPoint" />
          </mxGeometry>
        </mxCell>
        <mxCell id="8fsABqZ9mkiLqo2HBE2c-20" value="OpenWarningMessage()" style="html=1;verticalAlign=bottom;endArrow=block;edgeStyle=elbowEdgeStyle;elbow=vertical;curved=0;rounded=0;" parent="1" edge="1">
          <mxGeometry relative="1" as="geometry">
            <mxPoint x="90" y="429" as="sourcePoint" />
            <Array as="points">
              <mxPoint x="180" y="429" />
            </Array>
            <mxPoint x="270" y="429" as="targetPoint" />
          </mxGeometry>
        </mxCell>
        <mxCell id="8fsABqZ9mkiLqo2HBE2c-21" value="Display Warning Message" style="html=1;verticalAlign=bottom;endArrow=block;edgeStyle=elbowEdgeStyle;elbow=vertical;curved=0;rounded=0;dashed=1;" parent="1" edge="1">
          <mxGeometry relative="1" as="geometry">
            <mxPoint x="270" y="459" as="sourcePoint" />
            <Array as="points">
              <mxPoint x="190.5" y="459" />
            </Array>
            <mxPoint x="90" y="459" as="targetPoint" />
          </mxGeometry>
        </mxCell>
        <mxCell id="8fsABqZ9mkiLqo2HBE2c-22" value="OpenRecommendations()" style="html=1;verticalAlign=bottom;endArrow=block;edgeStyle=elbowEdgeStyle;elbow=vertical;curved=0;rounded=0;" parent="1" edge="1">
          <mxGeometry relative="1" as="geometry">
            <mxPoint x="90" y="489" as="sourcePoint" />
            <Array as="points">
              <mxPoint x="180" y="489" />
            </Array>
            <mxPoint x="270" y="489" as="targetPoint" />
          </mxGeometry>
        </mxCell>
        <mxCell id="8fsABqZ9mkiLqo2HBE2c-24" value="LoadRecommendations(device)" style="html=1;verticalAlign=bottom;endArrow=block;edgeStyle=elbowEdgeStyle;elbow=vertical;curved=0;rounded=0;" parent="1" edge="1">
          <mxGeometry relative="1" as="geometry">
            <mxPoint x="271.5" y="509" as="sourcePoint" />
            <Array as="points">
              <mxPoint x="362.5" y="509" />
            </Array>
            <mxPoint x="629.5" y="509" as="targetPoint" />
          </mxGeometry>
        </mxCell>
        <mxCell id="8fsABqZ9mkiLqo2HBE2c-25" value="Loaded Recommendations" style="html=1;verticalAlign=bottom;endArrow=block;edgeStyle=elbowEdgeStyle;elbow=vertical;curved=0;rounded=0;dashed=1;" parent="1" edge="1">
          <mxGeometry relative="1" as="geometry">
            <mxPoint x="629.5" y="529" as="sourcePoint" />
            <Array as="points">
              <mxPoint x="371" y="529" />
            </Array>
            <mxPoint x="270.5" y="529" as="targetPoint" />
          </mxGeometry>
        </mxCell>
        <mxCell id="aMWvDNj8nH-ndxZlrexJ-1" value="Display Recommendations" style="html=1;verticalAlign=bottom;endArrow=block;edgeStyle=elbowEdgeStyle;elbow=vertical;curved=0;rounded=0;dashed=1;" parent="1" edge="1">
          <mxGeometry relative="1" as="geometry">
            <mxPoint x="270" y="548" as="sourcePoint" />
            <Array as="points">
              <mxPoint x="190.5" y="548" />
            </Array>
            <mxPoint x="90" y="548" as="targetPoint" />
          </mxGeometry>
        </mxCell>
        <mxCell id="aMWvDNj8nH-ndxZlrexJ-2" value="optional" style="shape=umlFrame;whiteSpace=wrap;html=1;pointerEvents=0;width=70;height=30;" parent="1" vertex="1">
          <mxGeometry x="70" y="569" width="580" height="100" as="geometry" />
        </mxCell>
        <mxCell id="aMWvDNj8nH-ndxZlrexJ-3" value="MarkRecommendationsAsRead()" style="html=1;verticalAlign=bottom;endArrow=block;edgeStyle=elbowEdgeStyle;elbow=vertical;curved=0;rounded=0;endFill=1;" parent="1" edge="1">
          <mxGeometry relative="1" as="geometry">
            <mxPoint x="90" y="619" as="sourcePoint" />
            <Array as="points">
              <mxPoint x="180" y="619" />
            </Array>
            <mxPoint x="270" y="619" as="targetPoint" />
          </mxGeometry>
        </mxCell>
        <mxCell id="aMWvDNj8nH-ndxZlrexJ-4" value="MarkRecommendationsAsRead(device)" style="html=1;verticalAlign=bottom;endArrow=open;edgeStyle=elbowEdgeStyle;elbow=vertical;curved=0;rounded=0;endFill=0;" parent="1" edge="1">
          <mxGeometry relative="1" as="geometry">
            <mxPoint x="271" y="639" as="sourcePoint" />
            <Array as="points">
              <mxPoint x="362" y="639" />
            </Array>
            <mxPoint x="629" y="639" as="targetPoint" />
          </mxGeometry>
        </mxCell>
        <mxCell id="aMWvDNj8nH-ndxZlrexJ-5" value="Mark Warning Message As Read" style="html=1;verticalAlign=bottom;endArrow=block;edgeStyle=elbowEdgeStyle;elbow=vertical;curved=0;rounded=0;dashed=1;" parent="1" edge="1">
          <mxGeometry relative="1" as="geometry">
            <mxPoint x="270" y="659" as="sourcePoint" />
            <Array as="points">
              <mxPoint x="190.5" y="659" />
            </Array>
            <mxPoint x="90" y="659" as="targetPoint" />
          </mxGeometry>
        </mxCell>
        <mxCell id="PPO7kNymCOvyZBoTAz0A-5" value="auditResultsAvail" style="html=1;verticalAlign=bottom;endArrow=open;edgeStyle=elbowEdgeStyle;elbow=vertical;curved=0;rounded=0;endFill=0;" edge="1" parent="1">
          <mxGeometry relative="1" as="geometry">
            <mxPoint x="271" y="195" as="sourcePoint" />
            <Array as="points">
              <mxPoint x="366" y="195" />
            </Array>
            <mxPoint x="765" y="195" as="targetPoint" />
          </mxGeometry>
        </mxCell>
        <mxCell id="PPO7kNymCOvyZBoTAz0A-6" value="Scheduling Service" style="shape=umlLifeline;perimeter=lifelinePerimeter;whiteSpace=wrap;html=1;container=0;dropTarget=0;collapsible=0;recursiveResize=0;outlineConnect=0;portConstraint=eastwest;newEdgeStyle={&quot;edgeStyle&quot;:&quot;elbowEdgeStyle&quot;,&quot;elbow&quot;:&quot;vertical&quot;,&quot;curved&quot;:0,&quot;rounded&quot;:0};" vertex="1" parent="1">
          <mxGeometry x="721" y="40" width="100" height="670" as="geometry" />
        </mxCell>
        <mxCell id="PPO7kNymCOvyZBoTAz0A-4" value="" style="html=1;points=[[0,0,0,0,5],[0,1,0,0,-5],[1,0,0,0,5],[1,1,0,0,-5]];perimeter=orthogonalPerimeter;outlineConnect=0;targetShapes=umlLifeline;portConstraint=eastwest;newEdgeStyle={&quot;curved&quot;:0,&quot;rounded&quot;:0};" vertex="1" parent="PPO7kNymCOvyZBoTAz0A-6">
          <mxGeometry x="45" y="155" width="10" height="50" as="geometry" />
        </mxCell>
      </root>
    </mxGraphModel>
  </diagram>
</mxfile>
